
<svg xmlns="http://www.w3.org/2000/svg" viewBox="0 0 300 300" fill="none">
  <circle cx="150" cy="150" r="140" fill="white"/>
  <path d="M150 10C74.77 10 14 70.77 14 146C14 221.23 74.77 282 150 282C225.23 282 286 221.23 286 146C286 70.77 225.23 10 150 10Z" fill="#C8102E"/>
  <path d="M150 35C88.53 35 39 84.53 39 146C39 207.47 88.53 257 150 257C211.47 257 261 207.47 261 146C261 84.53 211.47 35 150 35Z" fill="white"/>
  <path d="M150 45C94.05 45 49 90.05 49 146C49 201.95 94.05 247 150 247C205.95 247 251 201.95 251 146C251 90.05 205.95 45 150 45Z" fill="#C8102E"/>
  <path d="M150 75C110.34 75 78 107.34 78 147C78 186.66 110.34 219 150 219C189.66 219 222 186.66 222 147C222 107.34 189.66 75 150 75Z" fill="white"/>
  <path d="M94 125H206V163H94V125Z" fill="white"/>
  <path d="M146 80L154 80L153.72 213H146.28L146 80Z" fill="white"/>
</svg>
